<svg width="480" height="480" xmlns="http://www.w3.org/2000/svg">
 <g>
  <title>Layer 1</title>
  <g stroke="null" id="svg_46">
   <g stroke="null" transform="matrix(1.5999902894999722,0,0,1.5999902894999722,-1082.6182042551336,-1082.7362210723688) " id="svg_5">
    <g stroke="null" id="svg_25">
     <g stroke="null" id="svg_26">
      <path fill="#222222" stroke="null" id="svg_27" d="m723.88635,713.50286c-0.008,0 -0.017,0 -0.025,0c-2.809,0 -5.451,1.095 -7.446,3.085c-2.017,2.012 -3.128,4.691 -3.128,7.543l0,159.365c0,5.844 4.773,10.61 10.641,10.625c24.738,0.059 66.184,5.215 94.776,35.136l0,-166.78c0,-1.981 -0.506,-3.842 -1.461,-5.382c-23.467,-37.792 -68.563,-43.534 -93.357,-43.592z"/>
      <path fill="#222222" stroke="null" id="svg_28" d="m940.62135,883.49586l0,-159.366c0,-2.852 -1.111,-5.531 -3.128,-7.543c-1.995,-1.99 -4.639,-3.085 -7.445,-3.085c-0.009,0 -0.018,0 -0.026,0c-24.793,0.059 -69.889,5.801 -93.357,43.593c-0.955,1.54 -1.46,3.401 -1.46,5.382l0,166.779c28.592,-29.921 70.038,-35.077 94.776,-35.136c5.867,-0.015 10.64,-4.781 10.64,-10.624z"/>
      <path fill="#222222" stroke="null" id="svg_29" d="m964.82735,750.25486l-7.706,0l0,133.241c0,14.921 -12.157,27.088 -27.101,27.125c-20.983,0.05 -55.581,4.153 -80.084,27.344c42.378,-10.376 87.052,-3.631 112.512,2.171c3.179,0.724 6.464,-0.024 9.011,-2.054c2.538,-2.025 3.994,-5.052 3.994,-8.301l0,-168.9c0.001,-5.859 -4.767,-10.626 -10.626,-10.626z"/>
      <path fill="#222222" stroke="null" id="svg_30" d="m696.78635,883.49586l0,-133.241l-7.706,0c-5.858,0 -10.626,4.767 -10.626,10.626l0,168.897c0,3.25 1.456,6.276 3.994,8.301c2.545,2.029 5.827,2.78 9.011,2.054c25.46,-5.803 70.135,-12.547 112.511,-2.171c-24.502,-23.19 -59.1,-27.292 -80.083,-27.342c-14.943,-0.036 -27.101,-12.203 -27.101,-27.124z"/>
     </g>
    </g>
   </g>
   <g stroke="null" transform="matrix(1.5999902894999722,0,0,1.5999902894999722,-1082.6182042551336,-1082.7362210723688) " id="svg_31"/>
   <g stroke="null" transform="matrix(1.5999902894999722,0,0,1.5999902894999722,-1082.6182042551336,-1082.7362210723688) " id="svg_32"/>
   <g stroke="null" transform="matrix(1.5999902894999722,0,0,1.5999902894999722,-1082.6182042551336,-1082.7362210723688) " id="svg_33"/>
   <g stroke="null" transform="matrix(1.5999902894999722,0,0,1.5999902894999722,-1082.6182042551336,-1082.7362210723688) " id="svg_34"/>
   <g stroke="null" transform="matrix(1.5999902894999722,0,0,1.5999902894999722,-1082.6182042551336,-1082.7362210723688) " id="svg_35"/>
   <g stroke="null" transform="matrix(1.5999902894999722,0,0,1.5999902894999722,-1082.6182042551336,-1082.7362210723688) " id="svg_36"/>
   <g stroke="null" transform="matrix(1.5999902894999722,0,0,1.5999902894999722,-1082.6182042551336,-1082.7362210723688) " id="svg_37"/>
   <g stroke="null" transform="matrix(1.5999902894999722,0,0,1.5999902894999722,-1082.6182042551336,-1082.7362210723688) " id="svg_38"/>
   <g stroke="null" transform="matrix(1.5999902894999722,0,0,1.5999902894999722,-1082.6182042551336,-1082.7362210723688) " id="svg_39"/>
   <g stroke="null" transform="matrix(1.5999902894999722,0,0,1.5999902894999722,-1082.6182042551336,-1082.7362210723688) " id="svg_40"/>
   <g stroke="null" transform="matrix(1.5999902894999722,0,0,1.5999902894999722,-1082.6182042551336,-1082.7362210723688) " id="svg_41"/>
   <g stroke="null" transform="matrix(1.5999902894999722,0,0,1.5999902894999722,-1082.6182042551336,-1082.7362210723688) " id="svg_42"/>
   <g stroke="null" transform="matrix(1.5999902894999722,0,0,1.5999902894999722,-1082.6182042551336,-1082.7362210723688) " id="svg_43"/>
   <g stroke="null" transform="matrix(1.5999902894999722,0,0,1.5999902894999722,-1082.6182042551336,-1082.7362210723688) " id="svg_44"/>
   <g stroke="null" transform="matrix(1.5999902894999722,0,0,1.5999902894999722,-1082.6182042551336,-1082.7362210723688) " id="svg_45"/>
  </g>
 </g>

</svg>