<svg xmlns="http://www.w3.org/2000/svg" width="13.051" height="13" viewBox="0 0 13.051 13">
  <g id="frontend" transform="translate(0 -1)">
    <path id="Path_3" data-name="Path 3" d="M13.051,4.059V2.147A1.148,1.148,0,0,0,11.9,1H1.147A1.148,1.148,0,0,0,0,2.147V4.059ZM8.82,2.529h2.294a.382.382,0,0,1,0,.765H8.82a.382.382,0,1,1,0-.765ZM5,2.529a.382.382,0,1,1-.382.382A.382.382,0,0,1,5,2.529Zm-1.529,0a.382.382,0,1,1-.382.382A.382.382,0,0,1,3.467,2.529Zm-1.529,0a.382.382,0,1,1-.382.382A.382.382,0,0,1,1.937,2.529Z" fill="#fff"/>
    <path id="Path_4" data-name="Path 4" d="M0,151v8.029a1.148,1.148,0,0,0,1.147,1.147H11.9a1.148,1.148,0,0,0,1.147-1.147V151Zm4.47,5.437a.382.382,0,1,1-.478.6L2.081,155.5a.383.383,0,0,1,0-.6l1.912-1.529a.382.382,0,1,1,.478.6l-1.539,1.231Zm3.554-3.757L5.73,158.033a.382.382,0,1,1-.7-.3l2.294-5.353a.382.382,0,0,1,.7.3ZM10.97,155.5l-1.912,1.529a.382.382,0,1,1-.478-.6l1.539-1.231-1.539-1.231a.382.382,0,1,1,.478-.6l1.912,1.529A.382.382,0,0,1,10.97,155.5Z" transform="translate(0 -146.176)" fill="#fff"/>
  </g>
</svg>
