<svg xmlns="http://www.w3.org/2000/svg" width="109" height="284" viewBox="0 0 109 284"><g transform="translate(179 429) rotate(180)"><path d="M0,4A2,2,0,0,1-2,2,2,2,0,0,1,0,0,2,2,0,0,1,2,2,2,2,0,0,1,0,4ZM280,4a2,2,0,1,1,2-2A2,2,0,0,1,280,4ZM263,4a2,2,0,1,1,2-2A2,2,0,0,1,263,4ZM228,4a2,2,0,1,1,2-2A2,2,0,0,1,228,4ZM193,4a2,2,0,1,1,2-2A2,2,0,0,1,193,4ZM158,4a2,2,0,1,1,2-2A2,2,0,0,1,158,4ZM140,4a2,2,0,1,1,2-2A2,2,0,0,1,140,4ZM123,4a2,2,0,1,1,2-2A2,2,0,0,1,123,4ZM245,4a2,2,0,1,1,2-2A2,2,0,0,1,245,4ZM210,4a2,2,0,1,1,2-2A2,2,0,0,1,210,4ZM175,4a2,2,0,1,1,2-2A2,2,0,0,1,175,4ZM105,4a2,2,0,1,1,2-2A2,2,0,0,1,105,4ZM88,4a2,2,0,1,1,2-2A2,2,0,0,1,88,4ZM70,4a2,2,0,1,1,2-2A2,2,0,0,1,70,4ZM53,4a2,2,0,1,1,2-2A2,2,0,0,1,53,4ZM35,4a2,2,0,1,1,2-2A2,2,0,0,1,35,4ZM18,4a2,2,0,1,1,2-2A2,2,0,0,1,18,4Z" transform="translate(91 147) rotate(90)" fill="rgba(83,104,223,0.5)" fill-rule="evenodd"/><path d="M0,4A2,2,0,0,1-2,2,2,2,0,0,1,0,0,2,2,0,0,1,2,2,2,2,0,0,1,0,4ZM280,4a2,2,0,1,1,2-2A2,2,0,0,1,280,4ZM263,4a2,2,0,1,1,2-2A2,2,0,0,1,263,4ZM228,4a2,2,0,1,1,2-2A2,2,0,0,1,228,4ZM193,4a2,2,0,1,1,2-2A2,2,0,0,1,193,4ZM158,4a2,2,0,1,1,2-2A2,2,0,0,1,158,4ZM140,4a2,2,0,1,1,2-2A2,2,0,0,1,140,4ZM123,4a2,2,0,1,1,2-2A2,2,0,0,1,123,4ZM245,4a2,2,0,1,1,2-2A2,2,0,0,1,245,4ZM210,4a2,2,0,1,1,2-2A2,2,0,0,1,210,4ZM175,4a2,2,0,1,1,2-2A2,2,0,0,1,175,4ZM105,4a2,2,0,1,1,2-2A2,2,0,0,1,105,4ZM88,4a2,2,0,1,1,2-2A2,2,0,0,1,88,4ZM70,4a2,2,0,1,1,2-2A2,2,0,0,1,70,4ZM53,4a2,2,0,1,1,2-2A2,2,0,0,1,53,4ZM35,4a2,2,0,1,1,2-2A2,2,0,0,1,35,4ZM18,4a2,2,0,1,1,2-2A2,2,0,0,1,18,4Z" transform="translate(109 147) rotate(90)" fill="rgba(83,104,223,0.5)" fill-rule="evenodd"/><path d="M0,4A2,2,0,0,1-2,2,2,2,0,0,1,0,0,2,2,0,0,1,2,2,2,2,0,0,1,0,4ZM280,4a2,2,0,1,1,2-2A2,2,0,0,1,280,4ZM263,4a2,2,0,1,1,2-2A2,2,0,0,1,263,4ZM228,4a2,2,0,1,1,2-2A2,2,0,0,1,228,4ZM193,4a2,2,0,1,1,2-2A2,2,0,0,1,193,4ZM158,4a2,2,0,1,1,2-2A2,2,0,0,1,158,4ZM140,4a2,2,0,1,1,2-2A2,2,0,0,1,140,4ZM123,4a2,2,0,1,1,2-2A2,2,0,0,1,123,4ZM245,4a2,2,0,1,1,2-2A2,2,0,0,1,245,4ZM210,4a2,2,0,1,1,2-2A2,2,0,0,1,210,4ZM175,4a2,2,0,1,1,2-2A2,2,0,0,1,175,4ZM105,4a2,2,0,1,1,2-2A2,2,0,0,1,105,4ZM88,4a2,2,0,1,1,2-2A2,2,0,0,1,88,4ZM70,4a2,2,0,1,1,2-2A2,2,0,0,1,70,4ZM53,4a2,2,0,1,1,2-2A2,2,0,0,1,53,4ZM35,4a2,2,0,1,1,2-2A2,2,0,0,1,35,4ZM18,4a2,2,0,1,1,2-2A2,2,0,0,1,18,4Z" transform="translate(161 147) rotate(90)" fill="rgba(83,104,223,0.5)" fill-rule="evenodd"/><path d="M0,4A2,2,0,0,1-2,2,2,2,0,0,1,0,0,2,2,0,0,1,2,2,2,2,0,0,1,0,4ZM280,4a2,2,0,1,1,2-2A2,2,0,0,1,280,4ZM263,4a2,2,0,1,1,2-2A2,2,0,0,1,263,4ZM228,4a2,2,0,1,1,2-2A2,2,0,0,1,228,4ZM193,4a2,2,0,1,1,2-2A2,2,0,0,1,193,4ZM158,4a2,2,0,1,1,2-2A2,2,0,0,1,158,4ZM140,4a2,2,0,1,1,2-2A2,2,0,0,1,140,4ZM123,4a2,2,0,1,1,2-2A2,2,0,0,1,123,4ZM245,4a2,2,0,1,1,2-2A2,2,0,0,1,245,4ZM210,4a2,2,0,1,1,2-2A2,2,0,0,1,210,4ZM175,4a2,2,0,1,1,2-2A2,2,0,0,1,175,4ZM105,4a2,2,0,1,1,2-2A2,2,0,0,1,105,4ZM88,4a2,2,0,1,1,2-2A2,2,0,0,1,88,4ZM70,4a2,2,0,1,1,2-2A2,2,0,0,1,70,4ZM53,4a2,2,0,1,1,2-2A2,2,0,0,1,53,4ZM35,4a2,2,0,1,1,2-2A2,2,0,0,1,35,4ZM18,4a2,2,0,1,1,2-2A2,2,0,0,1,18,4Z" transform="translate(144 147) rotate(90)" fill="rgba(83,104,223,0.5)" fill-rule="evenodd"/><path d="M0,4A2,2,0,0,1-2,2,2,2,0,0,1,0,0,2,2,0,0,1,2,2,2,2,0,0,1,0,4ZM280,4a2,2,0,1,1,2-2A2,2,0,0,1,280,4ZM263,4a2,2,0,1,1,2-2A2,2,0,0,1,263,4ZM228,4a2,2,0,1,1,2-2A2,2,0,0,1,228,4ZM193,4a2,2,0,1,1,2-2A2,2,0,0,1,193,4ZM158,4a2,2,0,1,1,2-2A2,2,0,0,1,158,4ZM140,4a2,2,0,1,1,2-2A2,2,0,0,1,140,4ZM123,4a2,2,0,1,1,2-2A2,2,0,0,1,123,4ZM245,4a2,2,0,1,1,2-2A2,2,0,0,1,245,4ZM210,4a2,2,0,1,1,2-2A2,2,0,0,1,210,4ZM175,4a2,2,0,1,1,2-2A2,2,0,0,1,175,4ZM105,4a2,2,0,1,1,2-2A2,2,0,0,1,105,4ZM88,4a2,2,0,1,1,2-2A2,2,0,0,1,88,4ZM70,4a2,2,0,1,1,2-2A2,2,0,0,1,70,4ZM53,4a2,2,0,1,1,2-2A2,2,0,0,1,53,4ZM35,4a2,2,0,1,1,2-2A2,2,0,0,1,35,4ZM18,4a2,2,0,1,1,2-2A2,2,0,0,1,18,4Z" transform="translate(126 147) rotate(90)" fill="rgba(83,104,223,0.5)" fill-rule="evenodd"/><path d="M0,4A2,2,0,0,1-2,2,2,2,0,0,1,0,0,2,2,0,0,1,2,2,2,2,0,0,1,0,4ZM280,4a2,2,0,1,1,2-2A2,2,0,0,1,280,4ZM263,4a2,2,0,1,1,2-2A2,2,0,0,1,263,4ZM228,4a2,2,0,1,1,2-2A2,2,0,0,1,228,4ZM193,4a2,2,0,1,1,2-2A2,2,0,0,1,193,4ZM158,4a2,2,0,1,1,2-2A2,2,0,0,1,158,4ZM140,4a2,2,0,1,1,2-2A2,2,0,0,1,140,4ZM123,4a2,2,0,1,1,2-2A2,2,0,0,1,123,4ZM245,4a2,2,0,1,1,2-2A2,2,0,0,1,245,4ZM210,4a2,2,0,1,1,2-2A2,2,0,0,1,210,4ZM175,4a2,2,0,1,1,2-2A2,2,0,0,1,175,4ZM105,4a2,2,0,1,1,2-2A2,2,0,0,1,105,4ZM88,4a2,2,0,1,1,2-2A2,2,0,0,1,88,4ZM70,4a2,2,0,1,1,2-2A2,2,0,0,1,70,4ZM53,4a2,2,0,1,1,2-2A2,2,0,0,1,53,4ZM35,4a2,2,0,1,1,2-2A2,2,0,0,1,35,4ZM18,4a2,2,0,1,1,2-2A2,2,0,0,1,18,4Z" transform="translate(179 147) rotate(90)" fill="rgba(83,104,223,0.5)" fill-rule="evenodd"/><path d="M0,4A2,2,0,0,1-2,2,2,2,0,0,1,0,0,2,2,0,0,1,2,2,2,2,0,0,1,0,4ZM280,4a2,2,0,1,1,2-2A2,2,0,0,1,280,4ZM263,4a2,2,0,1,1,2-2A2,2,0,0,1,263,4ZM228,4a2,2,0,1,1,2-2A2,2,0,0,1,228,4ZM193,4a2,2,0,1,1,2-2A2,2,0,0,1,193,4ZM158,4a2,2,0,1,1,2-2A2,2,0,0,1,158,4ZM140,4a2,2,0,1,1,2-2A2,2,0,0,1,140,4ZM123,4a2,2,0,1,1,2-2A2,2,0,0,1,123,4ZM245,4a2,2,0,1,1,2-2A2,2,0,0,1,245,4ZM210,4a2,2,0,1,1,2-2A2,2,0,0,1,210,4ZM175,4a2,2,0,1,1,2-2A2,2,0,0,1,175,4ZM105,4a2,2,0,1,1,2-2A2,2,0,0,1,105,4ZM88,4a2,2,0,1,1,2-2A2,2,0,0,1,88,4ZM70,4a2,2,0,1,1,2-2A2,2,0,0,1,70,4ZM53,4a2,2,0,1,1,2-2A2,2,0,0,1,53,4ZM35,4a2,2,0,1,1,2-2A2,2,0,0,1,35,4ZM18,4a2,2,0,1,1,2-2A2,2,0,0,1,18,4Z" transform="translate(74 147) rotate(90)" fill="rgba(83,104,223,0.5)" fill-rule="evenodd"/></g></svg>